<svg width="300" height="200" viewBox="0 0 300 200" fill="none" xmlns="http://www.w3.org/2000/svg">
<rect width="300" height="200" fill="#EBEAE6"/>
<path d="M42.7 96V81.8H47.62C49.14 81.8 50.4067 82.12 51.42 82.76C52.4467 83.3867 53.2133 84.24 53.72 85.32C54.2267 86.3867 54.48 87.5733 54.48 88.88C54.48 90.32 54.2 91.5733 53.64 92.64C53.08 93.7067 52.2867 94.5333 51.26 95.12C50.2333 95.7067 49.02 96 47.62 96H42.7ZM52.66 88.88C52.66 87.8133 52.46 86.8667 52.06 86.04C51.6733 85.2133 51.1067 84.5667 50.36 84.1C49.6133 83.6333 48.7 83.4 47.62 83.4H44.5V94.4H47.62C48.7133 94.4 49.6333 94.16 50.38 93.68C51.1267 93.1867 51.6933 92.5267 52.08 91.7C52.4667 90.86 52.66 89.92 52.66 88.88ZM61.3564 96.2C60.5697 96.2 59.8497 96.06 59.1964 95.78C58.5564 95.4867 57.9964 95.0933 57.5164 94.6C57.0497 94.0933 56.6831 93.5133 56.4164 92.86C56.1631 92.2067 56.0364 91.5133 56.0364 90.78C56.0364 89.7933 56.2631 88.8933 56.7164 88.08C57.1697 87.2667 57.7964 86.6133 58.5964 86.12C59.4097 85.6267 60.3364 85.38 61.3764 85.38C62.4297 85.38 63.3431 85.6333 64.1164 86.14C64.9031 86.6333 65.5097 87.2867 65.9364 88.1C66.3764 88.9 66.5964 89.7667 66.5964 90.7C66.5964 90.8333 66.5897 90.9667 66.5764 91.1C66.5764 91.22 66.5697 91.3133 66.5564 91.38H57.8964C57.9497 92.06 58.1364 92.6667 58.4564 93.2C58.7897 93.72 59.2164 94.1333 59.7364 94.44C60.2564 94.7333 60.8164 94.88 61.4164 94.88C62.0564 94.88 62.6564 94.72 63.2164 94.4C63.7897 94.08 64.1831 93.66 64.3964 93.14L65.9164 93.56C65.6897 94.0667 65.3497 94.52 64.8964 94.92C64.4564 95.32 63.9297 95.6333 63.3164 95.86C62.7164 96.0867 62.0631 96.2 61.3564 96.2ZM57.8364 90.16H64.9564C64.9031 89.48 64.7097 88.88 64.3764 88.36C64.0431 87.84 63.6164 87.4333 63.0964 87.14C62.5764 86.8467 62.0031 86.7 61.3764 86.7C60.7631 86.7 60.1964 86.8467 59.6764 87.14C59.1564 87.4333 58.7297 87.84 58.3964 88.36C58.0764 88.88 57.8897 89.48 57.8364 90.16ZM72.1328 96.2C71.2661 96.2 70.4528 96.06 69.6928 95.78C68.9328 95.4867 68.2795 95.0533 67.7328 94.48L68.4128 93.24C69.0128 93.8 69.6128 94.2 70.2128 94.44C70.8128 94.68 71.4261 94.8 72.0528 94.8C72.7728 94.8 73.3595 94.6667 73.8128 94.4C74.2661 94.12 74.4928 93.7133 74.4928 93.18C74.4928 92.7933 74.3728 92.5067 74.1328 92.32C73.9061 92.1333 73.5795 91.98 73.1528 91.86C72.7261 91.7267 72.2195 91.58 71.6328 91.42C70.9128 91.2067 70.3061 90.98 69.8128 90.74C69.3195 90.5 68.9461 90.2 68.6928 89.84C68.4395 89.48 68.3128 89.0267 68.3128 88.48C68.3128 87.8133 68.4861 87.2533 68.8328 86.8C69.1795 86.3333 69.6528 85.98 70.2528 85.74C70.8661 85.5 71.5595 85.38 72.3328 85.38C73.1061 85.38 73.8061 85.5 74.4328 85.74C75.0595 85.98 75.5995 86.3333 76.0528 86.8L75.2528 88.02C74.8395 87.5933 74.3861 87.28 73.8928 87.08C73.3995 86.8667 72.8461 86.76 72.2328 86.76C71.8728 86.76 71.5195 86.8067 71.1728 86.9C70.8261 86.98 70.5395 87.1333 70.3128 87.36C70.0861 87.5733 69.9728 87.88 69.9728 88.28C69.9728 88.6133 70.0595 88.88 70.2328 89.08C70.4195 89.2667 70.6861 89.4267 71.0328 89.56C71.3928 89.6933 71.8261 89.84 72.3328 90C73.1195 90.2267 73.7995 90.4533 74.3728 90.68C74.9595 90.9067 75.4128 91.2 75.7328 91.56C76.0528 91.92 76.2128 92.42 76.2128 93.06C76.2128 94.0467 75.8395 94.82 75.0928 95.38C74.3461 95.9267 73.3595 96.2 72.1328 96.2ZM82.9384 96.2C82.1518 96.2 81.4318 96.06 80.7784 95.78C80.1384 95.4867 79.5784 95.0933 79.0984 94.6C78.6318 94.0933 78.2651 93.5133 77.9984 92.86C77.7451 92.2067 77.6184 91.5133 77.6184 90.78C77.6184 89.7933 77.8451 88.8933 78.2984 88.08C78.7518 87.2667 79.3784 86.6133 80.1784 86.12C80.9918 85.6267 81.9184 85.38 82.9584 85.38C84.0118 85.38 84.9251 85.6333 85.6984 86.14C86.4851 86.6333 87.0918 87.2867 87.5184 88.1C87.9584 88.9 88.1784 89.7667 88.1784 90.7C88.1784 90.8333 88.1718 90.9667 88.1584 91.1C88.1584 91.22 88.1518 91.3133 88.1384 91.38H79.4784C79.5318 92.06 79.7184 92.6667 80.0384 93.2C80.3718 93.72 80.7984 94.1333 81.3184 94.44C81.8384 94.7333 82.3984 94.88 82.9984 94.88C83.6384 94.88 84.2384 94.72 84.7984 94.4C85.3718 94.08 85.7651 93.66 85.9784 93.14L87.4984 93.56C87.2718 94.0667 86.9318 94.52 86.4784 94.92C86.0384 95.32 85.5118 95.6333 84.8984 95.86C84.2984 96.0867 83.6451 96.2 82.9384 96.2ZM79.4184 90.16H86.5384C86.4851 89.48 86.2918 88.88 85.9584 88.36C85.6251 87.84 85.1984 87.4333 84.6784 87.14C84.1584 86.8467 83.5851 86.7 82.9584 86.7C82.3451 86.7 81.7784 86.8467 81.2584 87.14C80.7384 87.4333 80.3118 87.84 79.9784 88.36C79.6584 88.88 79.4718 89.48 79.4184 90.16ZM99.1948 96H97.4348V90.16C97.4348 89.0533 97.2615 88.2467 96.9148 87.74C96.5815 87.22 96.0682 86.96 95.3748 86.96C94.8948 86.96 94.4148 87.08 93.9348 87.32C93.4682 87.56 93.0482 87.8867 92.6748 88.3C92.3148 88.7 92.0548 89.1667 91.8948 89.7V96H90.1348V85.56H91.7348V87.8C92.0148 87.3067 92.3748 86.88 92.8148 86.52C93.2548 86.16 93.7548 85.88 94.3148 85.68C94.8748 85.48 95.4615 85.38 96.0748 85.38C96.6748 85.38 97.1748 85.4933 97.5748 85.72C97.9882 85.9333 98.3082 86.24 98.5348 86.64C98.7748 87.0267 98.9415 87.4867 99.0348 88.02C99.1415 88.5533 99.1948 89.1333 99.1948 89.76V96ZM104.717 96L100.617 85.56H102.457L105.737 94.32L109.017 85.56H110.737L106.637 96H104.717ZM116.707 96.2C115.92 96.2 115.207 96.06 114.567 95.78C113.927 95.4867 113.373 95.0933 112.907 94.6C112.44 94.0933 112.08 93.5133 111.827 92.86C111.573 92.2067 111.447 91.52 111.447 90.8C111.447 90.0667 111.573 89.3733 111.827 88.72C112.08 88.0667 112.44 87.4933 112.907 87C113.373 86.4933 113.927 86.1 114.567 85.82C115.22 85.5267 115.933 85.38 116.707 85.38C117.493 85.38 118.207 85.5267 118.847 85.82C119.487 86.1 120.04 86.4933 120.507 87C120.987 87.4933 121.353 88.0667 121.607 88.72C121.86 89.3733 121.987 90.0667 121.987 90.8C121.987 91.52 121.86 92.2067 121.607 92.86C121.353 93.5133 120.993 94.0933 120.527 94.6C120.06 95.0933 119.5 95.4867 118.847 95.78C118.207 96.06 117.493 96.2 116.707 96.2ZM113.247 90.82C113.247 91.54 113.4 92.1933 113.707 92.78C114.027 93.3667 114.447 93.8333 114.967 94.18C115.487 94.5133 116.067 94.68 116.707 94.68C117.347 94.68 117.927 94.5067 118.447 94.16C118.98 93.8133 119.4 93.3467 119.707 92.76C120.027 92.16 120.187 91.5 120.187 90.78C120.187 90.06 120.027 89.4067 119.707 88.82C119.4 88.2333 118.98 87.7667 118.447 87.42C117.927 87.0733 117.347 86.9 116.707 86.9C116.067 86.9 115.487 87.08 114.967 87.44C114.447 87.7867 114.027 88.2533 113.707 88.84C113.4 89.4267 113.247 90.0867 113.247 90.82ZM124.159 81.4H125.919V93.3C125.919 93.8733 125.999 94.2267 126.159 94.36C126.319 94.4933 126.513 94.56 126.739 94.56C127.019 94.56 127.286 94.5333 127.539 94.48C127.793 94.4133 128.006 94.3467 128.179 94.28L128.459 95.72C128.166 95.84 127.819 95.94 127.419 96.02C127.019 96.1 126.666 96.14 126.359 96.14C125.679 96.14 125.139 95.9467 124.739 95.56C124.353 95.1733 124.159 94.6333 124.159 93.94V81.4ZM132.451 96L128.351 85.56H130.191L133.471 94.32L136.751 85.56H138.471L134.371 96H132.451ZM140.233 96V85.56H141.993V96H140.233ZM140.233 83.6V81.4H141.993V83.6H140.233ZM160.582 96H158.822V90.16C158.822 89.0667 158.642 88.26 158.282 87.74C157.935 87.22 157.415 86.96 156.722 86.96C156.015 86.96 155.375 87.22 154.802 87.74C154.229 88.2467 153.822 88.9067 153.582 89.72V96H151.822V90.16C151.822 89.0533 151.649 88.2467 151.302 87.74C150.955 87.22 150.435 86.96 149.742 86.96C149.049 86.96 148.409 87.2133 147.822 87.72C147.249 88.2133 146.842 88.8733 146.602 89.7V96H144.842V85.56H146.442V87.8C146.869 87.0267 147.422 86.4333 148.102 86.02C148.782 85.5933 149.549 85.38 150.402 85.38C151.269 85.38 151.962 85.62 152.482 86.1C153.002 86.5667 153.322 87.1733 153.442 87.92C153.909 87.0933 154.475 86.4667 155.142 86.04C155.809 85.6 156.569 85.38 157.422 85.38C158.022 85.38 158.522 85.4933 158.922 85.72C159.335 85.9333 159.662 86.24 159.902 86.64C160.142 87.0267 160.315 87.4867 160.422 88.02C160.529 88.5533 160.582 89.1333 160.582 89.76V96ZM167.938 96.2C167.152 96.2 166.432 96.06 165.778 95.78C165.138 95.4867 164.578 95.0933 164.098 94.6C163.632 94.0933 163.265 93.5133 162.998 92.86C162.745 92.2067 162.618 91.5133 162.618 90.78C162.618 89.7933 162.845 88.8933 163.298 88.08C163.752 87.2667 164.378 86.6133 165.178 86.12C165.992 85.6267 166.918 85.38 167.958 85.38C169.012 85.38 169.925 85.6333 170.698 86.14C171.485 86.6333 172.092 87.2867 172.518 88.1C172.958 88.9 173.178 89.7667 173.178 90.7C173.178 90.8333 173.172 90.9667 173.158 91.1C173.158 91.22 173.152 91.3133 173.138 91.38H164.478C164.532 92.06 164.718 92.6667 165.038 93.2C165.372 93.72 165.798 94.1333 166.318 94.44C166.838 94.7333 167.398 94.88 167.998 94.88C168.638 94.88 169.238 94.72 169.798 94.4C170.372 94.08 170.765 93.66 170.978 93.14L172.498 93.56C172.272 94.0667 171.932 94.52 171.478 94.92C171.038 95.32 170.512 95.6333 169.898 95.86C169.298 96.0867 168.645 96.2 167.938 96.2ZM164.418 90.16H171.538C171.485 89.48 171.292 88.88 170.958 88.36C170.625 87.84 170.198 87.4333 169.678 87.14C169.158 86.8467 168.585 86.7 167.958 86.7C167.345 86.7 166.778 86.8467 166.258 87.14C165.738 87.4333 165.312 87.84 164.978 88.36C164.658 88.88 164.472 89.48 164.418 90.16ZM184.195 96H182.435V90.16C182.435 89.0533 182.262 88.2467 181.915 87.74C181.582 87.22 181.068 86.96 180.375 86.96C179.895 86.96 179.415 87.08 178.935 87.32C178.468 87.56 178.048 87.8867 177.675 88.3C177.315 88.7 177.055 89.1667 176.895 89.7V96H175.135V85.56H176.735V87.8C177.015 87.3067 177.375 86.88 177.815 86.52C178.255 86.16 178.755 85.88 179.315 85.68C179.875 85.48 180.462 85.38 181.075 85.38C181.675 85.38 182.175 85.4933 182.575 85.72C182.988 85.9333 183.308 86.24 183.535 86.64C183.775 87.0267 183.942 87.4867 184.035 88.02C184.142 88.5533 184.195 89.1333 184.195 89.76V96ZM192.234 95.48C192.087 95.5467 191.887 95.6333 191.634 95.74C191.381 95.8467 191.087 95.94 190.754 96.02C190.421 96.1 190.067 96.14 189.694 96.14C189.267 96.14 188.874 96.0667 188.514 95.92C188.154 95.76 187.867 95.52 187.654 95.2C187.441 94.8667 187.334 94.4533 187.334 93.96V86.94H185.914V85.56H187.334V82.08H189.094V85.56H191.434V86.94H189.094V93.42C189.121 93.7933 189.247 94.0733 189.474 94.26C189.701 94.4333 189.967 94.52 190.274 94.52C190.621 94.52 190.941 94.46 191.234 94.34C191.527 94.22 191.721 94.1333 191.814 94.08L192.234 95.48ZM198.289 96.2C197.502 96.2 196.789 96.06 196.149 95.78C195.509 95.4867 194.955 95.0933 194.489 94.6C194.022 94.0933 193.662 93.5133 193.409 92.86C193.155 92.2067 193.029 91.52 193.029 90.8C193.029 90.0667 193.155 89.3733 193.409 88.72C193.662 88.0667 194.022 87.4933 194.489 87C194.955 86.4933 195.509 86.1 196.149 85.82C196.802 85.5267 197.515 85.38 198.289 85.38C199.075 85.38 199.789 85.5267 200.429 85.82C201.069 86.1 201.622 86.4933 202.089 87C202.569 87.4933 202.935 88.0667 203.189 88.72C203.442 89.3733 203.569 90.0667 203.569 90.8C203.569 91.52 203.442 92.2067 203.189 92.86C202.935 93.5133 202.575 94.0933 202.109 94.6C201.642 95.0933 201.082 95.4867 200.429 95.78C199.789 96.06 199.075 96.2 198.289 96.2ZM194.829 90.82C194.829 91.54 194.982 92.1933 195.289 92.78C195.609 93.3667 196.029 93.8333 196.549 94.18C197.069 94.5133 197.649 94.68 198.289 94.68C198.929 94.68 199.509 94.5067 200.029 94.16C200.562 93.8133 200.982 93.3467 201.289 92.76C201.609 92.16 201.769 91.5 201.769 90.78C201.769 90.06 201.609 89.4067 201.289 88.82C200.982 88.2333 200.562 87.7667 200.029 87.42C199.509 87.0733 198.929 86.9 198.289 86.9C197.649 86.9 197.069 87.08 196.549 87.44C196.029 87.7867 195.609 88.2533 195.289 88.84C194.982 89.4267 194.829 90.0867 194.829 90.82ZM215.537 81.88H217.237L219.117 86.82L221.017 81.88H222.717L220.257 88.06L222.697 93.92L227.497 81.8H229.457L223.517 96H221.957L219.137 89.3L216.297 96H214.737L208.817 81.8H210.757L215.577 93.92L217.997 88.06L215.537 81.88ZM234.286 96.2C233.499 96.2 232.779 96.06 232.126 95.78C231.486 95.4867 230.926 95.0933 230.446 94.6C229.979 94.0933 229.613 93.5133 229.346 92.86C229.093 92.2067 228.966 91.5133 228.966 90.78C228.966 89.7933 229.193 88.8933 229.646 88.08C230.099 87.2667 230.726 86.6133 231.526 86.12C232.339 85.6267 233.266 85.38 234.306 85.38C235.359 85.38 236.273 85.6333 237.046 86.14C237.833 86.6333 238.439 87.2867 238.866 88.1C239.306 88.9 239.526 89.7667 239.526 90.7C239.526 90.8333 239.519 90.9667 239.506 91.1C239.506 91.22 239.499 91.3133 239.486 91.38H230.826C230.879 92.06 231.066 92.6667 231.386 93.2C231.719 93.72 232.146 94.1333 232.666 94.44C233.186 94.7333 233.746 94.88 234.346 94.88C234.986 94.88 235.586 94.72 236.146 94.4C236.719 94.08 237.113 93.66 237.326 93.14L238.846 93.56C238.619 94.0667 238.279 94.52 237.826 94.92C237.386 95.32 236.859 95.6333 236.246 95.86C235.646 96.0867 234.993 96.2 234.286 96.2ZM230.766 90.16H237.886C237.833 89.48 237.639 88.88 237.306 88.36C236.973 87.84 236.546 87.4333 236.026 87.14C235.506 86.8467 234.933 86.7 234.306 86.7C233.693 86.7 233.126 86.8467 232.606 87.14C232.086 87.4333 231.659 87.84 231.326 88.36C231.006 88.88 230.819 89.48 230.766 90.16ZM246.843 96.2C246.029 96.2 245.289 96 244.623 95.6C243.956 95.2 243.429 94.68 243.043 94.04V96H241.483V81.4H243.243V87.64C243.683 86.96 244.223 86.4133 244.863 86C245.503 85.5867 246.249 85.38 247.103 85.38C247.823 85.38 248.469 85.5333 249.043 85.84C249.616 86.1333 250.103 86.54 250.503 87.06C250.916 87.5667 251.229 88.1467 251.443 88.8C251.669 89.44 251.783 90.1133 251.783 90.82C251.783 91.5533 251.656 92.2467 251.403 92.9C251.163 93.54 250.816 94.1133 250.363 94.62C249.909 95.1133 249.383 95.5 248.783 95.78C248.196 96.06 247.549 96.2 246.843 96.2ZM246.403 94.68C246.923 94.68 247.403 94.5733 247.843 94.36C248.283 94.1467 248.663 93.86 248.983 93.5C249.303 93.14 249.549 92.7267 249.723 92.26C249.896 91.7933 249.983 91.3133 249.983 90.82C249.983 90.14 249.836 89.5 249.543 88.9C249.263 88.3 248.863 87.82 248.343 87.46C247.836 87.0867 247.243 86.9 246.563 86.9C246.069 86.9 245.609 87.0133 245.183 87.24C244.756 87.4667 244.376 87.7667 244.043 88.14C243.723 88.5 243.456 88.9 243.243 89.34V92.36C243.309 92.6933 243.449 93 243.663 93.28C243.876 93.56 244.136 93.8067 244.443 94.02C244.749 94.22 245.069 94.38 245.403 94.5C245.749 94.62 246.083 94.68 246.403 94.68ZM42.7 119V104.8H44.5V119H42.7ZM47.8953 119V104.8H57.2753V106.4H49.6953V111.14H56.0753V112.64H49.6953V119H47.8953ZM67.6416 107.78C67.4816 107.593 67.2682 107.413 67.0016 107.24C66.7349 107.067 66.4349 106.913 66.1016 106.78C65.7682 106.633 65.4016 106.52 65.0016 106.44C64.6149 106.347 64.2082 106.3 63.7816 106.3C62.6882 106.3 61.8816 106.507 61.3616 106.92C60.8416 107.333 60.5816 107.9 60.5816 108.62C60.5816 109.127 60.7149 109.527 60.9816 109.82C61.2482 110.113 61.6549 110.353 62.2016 110.54C62.7616 110.727 63.4682 110.92 64.3216 111.12C65.3082 111.333 66.1616 111.593 66.8816 111.9C67.6016 112.207 68.1549 112.62 68.5416 113.14C68.9282 113.647 69.1216 114.327 69.1216 115.18C69.1216 115.86 68.9882 116.453 68.7216 116.96C68.4682 117.453 68.1082 117.867 67.6416 118.2C67.1749 118.52 66.6282 118.76 66.0016 118.92C65.3749 119.067 64.6949 119.14 63.9616 119.14C63.2416 119.14 62.5349 119.067 61.8416 118.92C61.1616 118.76 60.5149 118.533 59.9016 118.24C59.2882 117.947 58.7149 117.58 58.1816 117.14L59.0416 115.62C59.2549 115.847 59.5282 116.073 59.8616 116.3C60.2082 116.513 60.5949 116.713 61.0216 116.9C61.4616 117.087 61.9349 117.24 62.4416 117.36C62.9482 117.467 63.4682 117.52 64.0016 117.52C65.0149 117.52 65.8016 117.34 66.3616 116.98C66.9216 116.607 67.2016 116.067 67.2016 115.36C67.2016 114.827 67.0416 114.4 66.7216 114.08C66.4149 113.76 65.9549 113.493 65.3416 113.28C64.7282 113.067 63.9816 112.853 63.1016 112.64C62.1416 112.4 61.3349 112.14 60.6816 111.86C60.0282 111.567 59.5349 111.187 59.2016 110.72C58.8816 110.253 58.7216 109.647 58.7216 108.9C58.7216 107.993 58.9416 107.227 59.3816 106.6C59.8216 105.973 60.4282 105.5 61.2016 105.18C61.9749 104.86 62.8482 104.7 63.8216 104.7C64.4616 104.7 65.0549 104.767 65.6016 104.9C66.1616 105.033 66.6816 105.22 67.1616 105.46C67.6416 105.7 68.0816 105.987 68.4816 106.32L67.6416 107.78ZM71.4891 119V104.8H77.4091C78.0357 104.8 78.6091 104.933 79.1291 105.2C79.6491 105.453 80.1024 105.8 80.4891 106.24C80.8757 106.667 81.1757 107.153 81.3891 107.7C81.6024 108.233 81.7091 108.78 81.7091 109.34C81.7091 110.113 81.5357 110.853 81.1891 111.56C80.8424 112.253 80.3557 112.82 79.7291 113.26C79.1024 113.687 78.3691 113.9 77.5291 113.9H73.2891V119H71.4891ZM73.2891 112.3H77.4291C77.9224 112.3 78.3491 112.167 78.7091 111.9C79.0824 111.633 79.3691 111.273 79.5691 110.82C79.7824 110.367 79.8891 109.873 79.8891 109.34C79.8891 108.78 79.7691 108.28 79.5291 107.84C79.2891 107.387 78.9757 107.033 78.5891 106.78C78.2024 106.527 77.7757 106.4 77.3091 106.4H73.2891V112.3Z" fill="black"/>
</svg>
