<svg width="40" height="40" viewBox="0 0 40 40" fill="none" xmlns="http://www.w3.org/2000/svg">
<path d="M6.66671 33.3334C5.75004 33.3334 4.9656 33.0072 4.31337 32.355C3.66115 31.7028 3.33449 30.9178 3.33337 30V10C3.33337 9.08335 3.66004 8.29891 4.31337 7.64669C4.96671 6.99446 5.75115 6.6678 6.66671 6.66669H33.3334C34.25 6.66669 35.035 6.99335 35.6884 7.64669C36.3417 8.30002 36.6678 9.08446 36.6667 10V30C36.6667 30.9167 36.3406 31.7017 35.6884 32.355C35.0362 33.0084 34.2512 33.3345 33.3334 33.3334H6.66671ZM20 21.6667L33.3334 13.3334V10L20 18.3334L6.66671 10V13.3334L20 21.6667Z" fill="white"/>
</svg>
