<svg width="40" height="40" viewBox="0 0 40 40" fill="none" xmlns="http://www.w3.org/2000/svg">
<path d="M20 3.33331C17.8113 3.33331 15.6441 3.76441 13.622 4.60199C11.5999 5.43957 9.76257 6.66722 8.21493 8.21487C5.08932 11.3405 3.33337 15.5797 3.33337 20C3.33337 27.3666 8.11671 33.6166 14.7334 35.8333C15.5667 35.9666 15.8334 35.45 15.8334 35V32.1833C11.2167 33.1833 10.2334 29.95 10.2334 29.95C9.46671 28.0166 8.38337 27.5 8.38337 27.5C6.86671 26.4666 8.50004 26.5 8.50004 26.5C10.1667 26.6166 11.05 28.2166 11.05 28.2166C12.5 30.75 14.95 30 15.9 29.6C16.05 28.5166 16.4834 27.7833 16.95 27.3666C13.25 26.95 9.36671 25.5166 9.36671 19.1666C9.36671 17.3166 10 15.8333 11.0834 14.65C10.9167 14.2333 10.3334 12.5 11.25 10.25C11.25 10.25 12.65 9.79998 15.8334 11.95C17.15 11.5833 18.5834 11.4 20 11.4C21.4167 11.4 22.85 11.5833 24.1667 11.95C27.35 9.79998 28.75 10.25 28.75 10.25C29.6667 12.5 29.0834 14.2333 28.9167 14.65C30 15.8333 30.6334 17.3166 30.6334 19.1666C30.6334 25.5333 26.7334 26.9333 23.0167 27.35C23.6167 27.8666 24.1667 28.8833 24.1667 30.4333V35C24.1667 35.45 24.4334 35.9833 25.2834 35.8333C31.9 33.6 36.6667 27.3666 36.6667 20C36.6667 17.8113 36.2356 15.644 35.398 13.6219C34.5605 11.5998 33.3328 9.76251 31.7852 8.21487C30.2375 6.66722 28.4002 5.43957 26.3781 4.60199C24.356 3.76441 22.1887 3.33331 20 3.33331Z" fill="white"/>
</svg>
